# xmcd
#
# Track frame offsets:
#	150
#	15041
#	28293
#	40999
#	55048
#	69604
#	88916
#	103973
#	119909
#	131942
#	147861
#	161810
#
# Disc length: 2317 seconds
#
# Revision: 0
# Processed by: cddbd v1.5.1PL0 Copyright (c) Steve Scherf et al.
# Submitted via: dBpowerAMP V4.0
#
DISCID=b3090b0c
DTITLE=Will Stevens - I´m in ther mood
DYEAR=1900
DGENRE=Country
TTITLE0=Cold cold heart
TTITLE1=Drinkin´ tequila
TTITLE2=Last day of forever
TTITLE3=The lucky one
TTITLE4=Talk about us
TTITLE5=Margaritaville
TTITLE6=Don´t forget to leave the carckeys
TTITLE7=A man holding on
TTITLE8=Operator,operator
TTITLE9=The gap
TTITLE10=I fell in love again
TTITLE11=I´m in the mood
EXTD=
EXTT0=
EXTT1=
EXTT2=
EXTT3=
EXTT4=
EXTT5=
EXTT6=
EXTT7=
EXTT8=
EXTT9=
EXTT10=
EXTT11=
PLAYORDER=
